<?xml version="1.0" encoding="UTF-8"?>
<svg width="328.45mm" height="123.72mm" version="1.1" viewBox="0 0 328.45 123.72" xmlns="http://www.w3.org/2000/svg">
 <g transform="translate(109.48 -98.285)">
  <g transform="matrix(.26458 0 0 .26458 -110.18 97.586)">
   <path d="m708.53 201.57c0-4.2437 3.483-7.7267 7.7267-7.7267h70.101c4.2437 0 7.6866 3.483 7.6866 7.7267v30.867c0 4.2437-3.443 7.6866-7.6866 7.6866h-70.101c-4.2437 0-7.7267-3.443-7.7267-7.6866z" fill="#00b050" fill-rule="evenodd"/>
   <text x="735.99872" y="232.52814" fill="#000000" font-family="sans-serif" font-size="42.75px" letter-spacing="0px" word-spacing="0px" style="line-height:125%" xml:space="preserve"><tspan x="735.99872" y="232.52814"><tspan dx="0" dy="0" fill="#ffffff" font-family="sans-serif" font-size="42.75px">C</tspan></tspan></text>
   <path d="m708.53 130.63c0-4.2437 3.483-7.7267 7.7267-7.7267h70.101c4.2437 0 7.6866 3.483 7.6866 7.7267v30.867c0 4.2437-3.443 7.6866-7.6866 7.6866h-70.101c-4.2437 0-7.7267-3.443-7.7267-7.6866z" fill="#00b050" fill-rule="evenodd"/>
   <text x="736.87543" y="161.58687" fill="#000000" font-family="sans-serif" font-size="42.75px" letter-spacing="0px" word-spacing="0px" style="line-height:125%" xml:space="preserve"><tspan x="736.87543" y="161.58687"><tspan dx="0" dy="0" fill="#ffffff" font-family="sans-serif" font-size="42.75px">E</tspan></tspan></text>
   <path d="m708.53 266.07h85.514v38.433l-7.6866 7.6866h-77.827z" fill="#4a7b7c" fill-rule="evenodd"/>
   <path d="m786.36 312.19 1.5614-6.1253 6.1253-1.5614z" fill="#3b6364" fill-rule="evenodd"/>
   <g fill="#000000" font-family="sans-serif" letter-spacing="0px" word-spacing="0px">
    <text x="722.87939" y="304.67047" font-size="42.75px" style="line-height:125%" xml:space="preserve"><tspan x="722.87939" y="304.67047"><tspan dx="0" dy="0" fill="#ffffff" font-family="sans-serif" font-size="42.75px">TD</tspan></tspan></text>
    <g font-size="48.062px">
     <text transform="translate(826.24 161.9)" style="line-height:125%" xml:space="preserve"><tspan x="0" y="0"><tspan dx="0" dy="0" fill="#000000" font-family="sans-serif" font-size="48.062px">Exposed Thing</tspan></tspan></text>
     <text transform="translate(826.24 233.63)" style="line-height:125%" xml:space="preserve"><tspan x="0" y="0"><tspan dx="0" dy="0" fill="#000000" font-family="sans-serif" font-size="48.062px">Consumed Thing</tspan></tspan></text>
     <text transform="translate(826.24 305.35)" style="line-height:125%" xml:space="preserve"><tspan x="0" y="0"><tspan dx="0" dy="0" fill="#000000" font-family="sans-serif" font-size="48.062px">Thing Description</tspan></tspan></text>
    </g>
   </g>
   <path d="m2.6423 22.269c0-10.839 8.7876-19.627 19.627-19.627h239.72c10.839 0 19.617 8.7876 19.617 19.627v78.458c0 10.839-8.7776 19.617-19.617 19.617h-239.72c-10.839 0-19.627-8.7776-19.627-19.617z" fill="#7f7f7f" fill-rule="evenodd"/>
   <text x="143.69876" y="75.96431" fill="#000000" font-family="sans-serif" font-size="42.75px" font-weight="bold" letter-spacing="0px" word-spacing="0px" style="line-height:125%" xml:space="preserve"><tspan x="143.69876" y="75.96431" font-family="sans-serif" font-size="42.751px" font-weight="bold" text-align="center" text-anchor="middle" writing-mode="lr" style="font-feature-settings:normal;font-variant-caps:normal;font-variant-ligatures:normal;font-variant-numeric:normal"><tspan dx="0" dy="0" fill="#000000" font-family="sans-serif" font-size="42.751px" font-weight="bold" text-align="center" text-anchor="middle" writing-mode="lr" style="font-feature-settings:normal;font-variant-caps:normal;font-variant-ligatures:normal;font-variant-numeric:normal">Application</tspan></tspan></text>
   <path d="m2.6423 372.16c0-10.829 8.7876-19.617 19.617-19.617h239.73c10.849 0 19.617 8.7876 19.617 19.617v78.468c0 10.849-8.7676 19.617-19.617 19.617h-239.73c-10.829 0-19.617-8.7676-19.617-19.617z" fill="#7f7f7f" fill-rule="evenodd"/>
   <text x="141.01645" y="427.32224" fill="#000000" font-family="sans-serif" font-size="42.75px" font-weight="bold" letter-spacing="0px" text-align="center" text-anchor="middle" word-spacing="0px" style="line-height:125%" xml:space="preserve"><tspan x="141.01645" y="427.32224" font-family="sans-serif" font-size="42.751px" font-weight="bold" text-align="center" text-anchor="middle" writing-mode="lr" style="font-feature-settings:normal;font-variant-caps:normal;font-variant-ligatures:normal;font-variant-numeric:normal"><tspan dx="0" dy="0" fill="#000000" font-family="sans-serif" font-size="42.751px" font-weight="bold" text-align="center" text-anchor="middle" writing-mode="lr" style="font-feature-settings:normal;font-variant-caps:normal;font-variant-ligatures:normal;font-variant-numeric:normal">Device</tspan></tspan></text>
   <path d="m99.446 118.29c0-4.2537 3.463-7.7167 7.7167-7.7167h69.93c4.2537 0 7.7067 3.463 7.7067 7.7167v30.857c0 4.2537-3.453 7.7067-7.7067 7.7067h-69.93c-4.2537 0-7.7167-3.453-7.7167-7.7067z" fill="#00b050" fill-rule="evenodd"/>
   <text x="126.83254" y="148.22751" fill="#000000" font-family="sans-serif" font-size="42.75px" letter-spacing="0px" word-spacing="0px" style="line-height:125%" xml:space="preserve"><tspan x="126.83254" y="148.22751"><tspan dx="0" dy="0" fill="#ffffff" font-family="sans-serif" font-size="42.75px">C</tspan></tspan></text>
   <path d="m99.446 330.97c0-4.2637 3.463-7.7267 7.7267-7.7267h69.92c4.2637 0 7.7067 3.463 7.7067 7.7267v30.847c0 4.2637-3.443 7.7067-7.7067 7.7067h-69.92c-4.2637 0-7.7267-3.443-7.7267-7.7067z" fill="#00b050" fill-rule="evenodd"/>
   <text x="127.70925" y="360.94122" fill="#000000" font-family="sans-serif" font-size="42.75px" letter-spacing="0px" word-spacing="0px" style="line-height:125%" xml:space="preserve"><tspan x="127.70925" y="360.94122"><tspan dx="0" dy="0" fill="#ffffff" font-family="sans-serif" font-size="42.75px">E</tspan></tspan></text>
   <g stroke="#000" stroke-linejoin="round" stroke-width=".020017px">
    <path d="m145.17 172.07v136.04h-6.0852v-136.04zm-12.171 3.0426 9.1279-18.256 9.1279 18.256zm18.256 129.95-9.1279 18.256-9.1279-18.256z"/>
    <path d="m243.33 354.85 13.312-12.491-4.1636-4.4238-13.312 12.491zm17.755-16.654 13.312-12.491-4.1636-4.4238-13.312 12.491zm17.755-16.654 13.312-12.491-4.1636-4.4438-13.312 12.511zm17.755-16.654 13.312-12.491-4.1636-4.4438-13.312 12.491zm17.735-16.654 13.312-12.491-4.1636-4.4438-13.312 12.491zm17.755-16.654 3.6632-3.443-4.1636-4.4238-3.6632 3.423zm5.6048 3.0827 7.0661-19.157-19.557 5.845z"/>
    <path d="m342.96 211.76-14.913-10.529 3.503-4.9843 14.913 10.529zm-19.877-14.032-14.933-10.529 3.523-4.9643 14.913 10.509zm-19.897-14.032-14.913-10.529 3.503-4.9643 14.913 10.509zm-19.897-14.032-14.913-10.529 3.503-4.9643 14.933 10.509zm-19.877-14.032-14.933-10.529 3.523-4.9643 14.913 10.509zm-19.897-14.032-14.152-9.9886 3.503-4.9843 14.152 9.9886zm-15.173-3.2628-9.6684-17.996 20.197 3.0827z"/>
   </g>
   <path d="m300.98 209.25h85.514v38.433l-7.6866 7.6866h-77.827z" fill="#4a7b7c" fill-rule="evenodd"/>
   <path d="m378.81 255.37 1.5614-6.1253 6.1253-1.5614z" fill="#3b6364" fill-rule="evenodd"/>
   <text x="315.32901" y="247.85196" fill="#000000" font-family="sans-serif" font-size="42.75px" letter-spacing="0px" word-spacing="0px" style="line-height:125%" xml:space="preserve"><tspan x="315.32901" y="247.85196"><tspan dx="0" dy="0" fill="#ffffff" font-family="sans-serif" font-size="42.75px">TD</tspan></tspan></text>
  </g>
 </g>
</svg>
