<?xml version="1.0" encoding="UTF-8"?>
<svg width="375.56mm" height="126.67mm" version="1.1" viewBox="0 0 375.56 126.67" xmlns="http://www.w3.org/2000/svg">
 <g transform="translate(302.22 -71.873)">
  <g>
   <path d="m-302.26 77.042c0-2.8679 2.325-5.193 5.193-5.193h63.425c2.8679 0 5.1903 2.325 5.1903 5.193v20.759c0 2.8679-2.3224 5.1903-5.1903 5.1903h-63.425c-2.8679 0-5.193-2.3224-5.193-5.1903z" fill="#7f7f7f" fill-rule="evenodd"/>
   <text x="-265.0274" y="90.17894" fill="#000000" font-family="sans-serif" font-size="9.8778px" font-weight="bold" letter-spacing="0px" stroke-width=".26458" word-spacing="0px" style="font-feature-settings:normal;font-variant-caps:normal;font-variant-ligatures:normal;font-variant-numeric:normal;line-height:125%" xml:space="preserve"><tspan x="-265.0274" y="90.17894" font-family="sans-serif" font-size="9.8778px" font-weight="bold" stroke-width=".26458" text-align="center" text-anchor="middle" style="font-feature-settings:normal;font-variant-caps:normal;font-variant-ligatures:normal;font-variant-numeric:normal"><tspan dx="0" dy="0" fill="#000000" font-family="sans-serif" font-size="9.8778px" font-weight="bold" stroke-width=".26458" text-align="center" text-anchor="middle" style="font-feature-settings:normal;font-variant-caps:normal;font-variant-ligatures:normal;font-variant-numeric:normal">Application</tspan></tspan></text>
   <path d="m-182.22 71.873h22.583v10.206l-2.039 2.0391h-20.544z" fill="#4a7b7c" fill-rule="evenodd"/>
   <path d="m-161.67 84.117 0.40781-1.6312 1.6312-0.40781z" fill="#3b6364" fill-rule="evenodd"/>
   <text x="-171.19147" y="82.023048" fill="#000000" font-family="sans-serif" font-size="11.592px" letter-spacing="0px" stroke-width=".26458" text-align="center" text-anchor="middle" word-spacing="0px" style="font-feature-settings:normal;font-variant-caps:normal;font-variant-ligatures:normal;font-variant-numeric:normal;line-height:125%" xml:space="preserve"><tspan x="-171.19147" y="82.023048" font-family="sans-serif" font-size="11.592px" stroke-width=".26458" text-align="center" text-anchor="middle" style="font-feature-settings:normal;font-variant-caps:normal;font-variant-ligatures:normal;font-variant-numeric:normal"><tspan dx="0" dy="0" fill="#ffffff" font-family="sans-serif" font-size="11.592px" stroke-width=".26458" text-align="center" text-anchor="middle" style="font-feature-settings:normal;font-variant-caps:normal;font-variant-ligatures:normal;font-variant-numeric:normal">TD</tspan></tspan></text>
   <path d="m-302.07 172.59c0-2.8653 2.325-5.1903 5.1903-5.1903h63.428c2.8706 0 5.1903 2.325 5.1903 5.1903v20.761c0 2.8706-2.3198 5.1903-5.1903 5.1903h-63.428c-2.8653 0-5.1903-2.3198-5.1903-5.1903z" fill="#7f7f7f" fill-rule="evenodd"/>
   <text x="-265.42291" y="186.6532" fill="#000000" font-family="sans-serif" font-size="9.8778px" font-weight="bold" letter-spacing="0px" stroke-width=".26458" text-align="center" text-anchor="middle" word-spacing="0px" style="font-feature-settings:normal;font-variant-caps:normal;font-variant-ligatures:normal;font-variant-numeric:normal;line-height:125%" xml:space="preserve"><tspan x="-265.42291" y="186.6532" font-family="sans-serif" font-size="9.8778px" font-weight="bold" stroke-width=".26458" text-align="center" text-anchor="middle" style="font-feature-settings:normal;font-variant-caps:normal;font-variant-ligatures:normal;font-variant-numeric:normal"><tspan dx="0" dy="0" fill="#000000" font-family="sans-serif" font-size="9.8778px" font-weight="bold" stroke-width=".26458" text-align="center" text-anchor="middle" style="font-feature-settings:normal;font-variant-caps:normal;font-variant-ligatures:normal;font-variant-numeric:normal">Device</tspan></tspan></text>
   <path d="m-234.59 84.086c0-1.1281 0.91624-2.0443 2.0444-2.0443h18.5c1.1281 0 2.039 0.91625 2.039 2.0443v8.1615c0 1.1281-0.91096 2.0391-2.039 2.0391h-18.5c-1.1281 0-2.0444-0.91095-2.0444-2.0391z" fill="#00b050" fill-rule="evenodd"/>
   <text x="-223.3875" y="92.377754" fill="#000000" font-family="sans-serif" font-size="11.592px" letter-spacing="0px" stroke-width=".26458" text-align="center" text-anchor="middle" word-spacing="0px" style="font-feature-settings:normal;font-variant-caps:normal;font-variant-ligatures:normal;font-variant-numeric:normal;line-height:125%" xml:space="preserve"><tspan x="-223.3875" y="92.377754" font-family="sans-serif" font-size="11.592px" stroke-width=".26458" text-align="center" text-anchor="middle" style="font-feature-settings:normal;font-variant-caps:normal;font-variant-ligatures:normal;font-variant-numeric:normal"><tspan dx="0" dy="0" fill="#ffffff" font-family="sans-serif" font-size="11.592px" stroke-width=".26458" text-align="center" text-anchor="middle" style="font-feature-settings:normal;font-variant-caps:normal;font-variant-ligatures:normal;font-variant-numeric:normal">C</tspan></tspan></text>
   <path d="m-233.4 176.75c0-1.1281 0.91625-2.0444 2.0444-2.0444h18.542c1.1281 0 2.0391 0.91625 2.0391 2.0444v8.1615c0 1.1281-0.91096 2.039-2.0391 2.039h-18.542c-1.1281 0-2.0444-0.91096-2.0444-2.039z" fill="#00b050" fill-rule="evenodd"/>
   <text x="-222.32712" y="185.04079" fill="#000000" font-family="sans-serif" font-size="11.592px" letter-spacing="0px" stroke-width=".26458" text-align="center" text-anchor="middle" word-spacing="0px" style="font-feature-settings:normal;font-variant-caps:normal;font-variant-ligatures:normal;font-variant-numeric:normal;line-height:125%" xml:space="preserve"><tspan x="-222.32712" y="185.04079" font-family="sans-serif" font-size="11.592px" stroke-width=".26458" text-align="center" text-anchor="middle" style="font-feature-settings:normal;font-variant-caps:normal;font-variant-ligatures:normal;font-variant-numeric:normal"><tspan dx="0" dy="0" fill="#ffffff" font-family="sans-serif" font-size="11.592px" stroke-width=".26458" text-align="center" text-anchor="middle" style="font-feature-settings:normal;font-variant-caps:normal;font-variant-ligatures:normal;font-variant-numeric:normal">E</tspan></tspan></text>
   <path d="m-175.46 144.16-33.043 33.239 1.1387 1.1334 33.049-33.234zm1.716 2.8441 1.6948-5.1321-5.1162 1.7266zm-35.337 28.69-1.6948 5.1268 5.1215-1.7213z" stroke="#000" stroke-linejoin="round" stroke-width=".0052962px"/>
   <path d="m-58.539 130.65c0-1.1228 0.92154-2.0444 2.0443-2.0444h18.505c1.1228 0 2.0338 0.92155 2.0338 2.0444v8.1668c0 1.1228-0.91096 2.0338-2.0338 2.0338h-18.505c-1.1228 0-2.0443-0.91095-2.0443-2.0338z" fill="#00b050" fill-rule="evenodd"/>
  </g>
  <path d="m-58.539 130.65c0-1.1228 0.92154-2.0444 2.0443-2.0444h18.505c1.1228 0 2.0338 0.92155 2.0338 2.0444v8.1668c0 1.1228-0.91096 2.0338-2.0338 2.0338h-18.505c-1.1228 0-2.0443-0.91095-2.0443-2.0338z" fill="none" stroke="#5b9bd5" stroke-miterlimit="8" stroke-width=".16948px"/>
  <text x="-47.340427" y="138.94231" fill="#000000" font-family="sans-serif" font-size="11.592px" letter-spacing="0px" stroke-width=".26458" text-align="center" text-anchor="middle" word-spacing="0px" style="font-feature-settings:normal;font-variant-caps:normal;font-variant-ligatures:normal;font-variant-numeric:normal;line-height:125%" xml:space="preserve"><tspan x="-47.340427" y="138.94231" font-family="sans-serif" font-size="11.592px" stroke-width=".26458" text-align="center" text-anchor="middle" style="font-feature-settings:normal;font-variant-caps:normal;font-variant-ligatures:normal;font-variant-numeric:normal"><tspan dx="0" dy="0" fill="#ffffff" font-family="sans-serif" font-size="11.592px" stroke-width=".26458" text-align="center" text-anchor="middle" style="font-feature-settings:normal;font-variant-caps:normal;font-variant-ligatures:normal;font-variant-numeric:normal">C</tspan></tspan></text>
  <path d="m-58.539 111.88c0-1.1228 0.92154-2.0444 2.0443-2.0444h18.505c1.1228 0 2.0338 0.92155 2.0338 2.0444v8.1668c0 1.1228-0.91096 2.0338-2.0338 2.0338h-18.505c-1.1228 0-2.0443-0.91095-2.0443-2.0338z" fill="#00b050" fill-rule="evenodd"/>
  <path d="m-58.539 111.88c0-1.1228 0.92154-2.0444 2.0443-2.0444h18.505c1.1228 0 2.0338 0.92155 2.0338 2.0444v8.1668c0 1.1228-0.91096 2.0338-2.0338 2.0338h-18.505c-1.1228 0-2.0443-0.91095-2.0443-2.0338z" fill="none" stroke="#5b9bd5" stroke-miterlimit="8" stroke-width=".16948px"/>
  <g>
   <text x="-47.487591" y="120.17242" fill="#000000" font-family="sans-serif" font-size="11.592px" letter-spacing="0px" stroke-width=".26458" text-align="center" text-anchor="middle" word-spacing="0px" style="font-feature-settings:normal;font-variant-caps:normal;font-variant-ligatures:normal;font-variant-numeric:normal;line-height:125%" xml:space="preserve"><tspan x="-47.487591" y="120.17242" font-family="sans-serif" font-size="11.592px" stroke-width=".26458" text-align="center" text-anchor="middle" style="font-feature-settings:normal;font-variant-caps:normal;font-variant-ligatures:normal;font-variant-numeric:normal"><tspan dx="0" dy="0" fill="#ffffff" font-family="sans-serif" font-size="11.592px" stroke-width=".26458" text-align="center" text-anchor="middle" style="font-feature-settings:normal;font-variant-caps:normal;font-variant-ligatures:normal;font-variant-numeric:normal">E</tspan></tspan></text>
   <path d="m-58.539 147.71h22.583v10.211l-2.0338 2.0338h-20.549z" fill="#4a7b7c" fill-rule="evenodd"/>
   <path d="m-37.989 159.96 0.4025-1.6312 1.6313-0.40252z" fill="#3b6364" fill-rule="evenodd"/>
  </g>
  <path d="m-37.989 159.96 0.4025-1.6312 1.6313-0.40252-2.0338 2.0338h-20.549v-12.245h22.583v10.211" fill="none" stroke="#5b9bd5" stroke-miterlimit="8" stroke-width=".16948px"/>
  <g fill="#000000" font-family="sans-serif" font-size="11.592px" letter-spacing="0px" stroke-width=".26458" word-spacing="0px">
   <text x="-46.725601" y="157.80563" text-align="center" text-anchor="middle" style="font-feature-settings:normal;font-variant-caps:normal;font-variant-ligatures:normal;font-variant-numeric:normal;line-height:125%" xml:space="preserve"><tspan x="-46.725601" y="157.80563" font-family="sans-serif" font-size="11.592px" stroke-width=".26458" text-align="center" text-anchor="middle" style="font-feature-settings:normal;font-variant-caps:normal;font-variant-ligatures:normal;font-variant-numeric:normal"><tspan dx="0" dy="0" fill="#ffffff" font-family="sans-serif" font-size="11.592px" stroke-width=".26458" text-align="center" text-anchor="middle" style="font-feature-settings:normal;font-variant-caps:normal;font-variant-ligatures:normal;font-variant-numeric:normal">TD</tspan></tspan></text>
   <g>
    <text x="-27.432079" y="120.17199" style="font-feature-settings:normal;font-variant-caps:normal;font-variant-ligatures:normal;font-variant-numeric:normal;line-height:125%" xml:space="preserve"><tspan x="-27.432079" y="120.17199" font-family="sans-serif" font-size="11.592px" stroke-width=".26458" style="font-feature-settings:normal;font-variant-caps:normal;font-variant-ligatures:normal;font-variant-numeric:normal"><tspan dx="0" dy="0" fill="#000000" font-family="sans-serif" font-size="11.592px" stroke-width=".26458" style="font-feature-settings:normal;font-variant-caps:normal;font-variant-ligatures:normal;font-variant-numeric:normal">Exposed Thing</tspan></tspan></text>
    <text x="-27.432079" y="139.14809" style="font-feature-settings:normal;font-variant-caps:normal;font-variant-ligatures:normal;font-variant-numeric:normal;line-height:125%" xml:space="preserve"><tspan x="-27.432079" y="139.14809" font-family="sans-serif" font-size="11.592px" stroke-width=".26458" style="font-feature-settings:normal;font-variant-caps:normal;font-variant-ligatures:normal;font-variant-numeric:normal"><tspan dx="0" dy="0" fill="#000000" font-family="sans-serif" font-size="11.592px" stroke-width=".26458" style="font-feature-settings:normal;font-variant-caps:normal;font-variant-ligatures:normal;font-variant-numeric:normal">Consumed Thing</tspan></tspan></text>
    <text x="-27.432079" y="158.12416" style="font-feature-settings:normal;font-variant-caps:normal;font-variant-ligatures:normal;font-variant-numeric:normal;line-height:125%" xml:space="preserve"><tspan x="-27.432079" y="158.12416" font-family="sans-serif" font-size="11.592px" stroke-width=".26458" style="font-feature-settings:normal;font-variant-caps:normal;font-variant-ligatures:normal;font-variant-numeric:normal"><tspan dx="0" dy="0" fill="#000000" font-family="sans-serif" font-size="11.592px" stroke-width=".26458" style="font-feature-settings:normal;font-variant-caps:normal;font-variant-ligatures:normal;font-variant-numeric:normal">Thing Description</tspan></tspan></text>
   </g>
  </g>
  <g>
   <path d="m-123.28 119.72-3.2201-3.5908 1.197-1.0804 3.2307 3.6014zm-4.3005-4.7878-3.2201-3.6014 1.197-1.0698 3.2201 3.5908zm-4.3006-4.7984-3.2201-3.5908 1.197-1.0804 3.2201 3.6014zm-4.3006-4.7878-3.2307-3.5908 1.1969-1.0804 3.2307 3.5908zm-4.3006-4.7984-3.2307-3.5908 1.197-1.0698 3.2307 3.5909zm-4.3006-4.7878-3.2307-3.5909 1.197-1.0804 3.2307 3.5909zm-4.3111-4.7878-3.2201-3.6014 1.197-1.0698 3.2307 3.5909zm-4.3006-4.7984-3.2201-3.5909 1.197-1.0804 3.2201 3.6014zm-4.809-2.9447-1.43-5.2115 5.0314 1.9808z" stroke="#000" stroke-linejoin="round" stroke-width=".010592px"/>
   <path d="m-182.2 77.211h-4.8302v1.6101h4.8302zm-6.4402 0h-4.8302v1.6101h4.8302zm-6.4402 0h-4.8302v1.6101h4.8302zm-6.4402 0h-4.8302v1.6101h4.8302zm-6.4402 0h-4.8302v1.6101h4.8302zm-6.4402 0h-4.8302v1.6101h4.8302zm-6.4402 0h-3.0242v1.6101h3.0242zm-2.2191-1.6101-4.8302 2.4151 4.8302 2.4151z" stroke="#000" stroke-linejoin="round" stroke-width=".0052962px"/>
   <path d="m-157.83 124.06c0-2.86 2.3304-5.1903 5.1903-5.1903h63.428c2.8706 0 5.1903 2.3303 5.1903 5.1903v20.761c0 2.8706-2.3198 5.1903-5.1903 5.1903h-63.428c-2.86 0-5.1903-2.3198-5.1903-5.1903z" fill="#7f7f7f" fill-rule="evenodd"/>
   <text x="-121.31609" y="137.04259" fill="#000000" font-family="sans-serif" font-size="9.8778px" font-weight="bold" letter-spacing="0px" stroke-width=".26458" text-align="center" text-anchor="middle" word-spacing="0px" style="font-feature-settings:normal;font-variant-caps:normal;font-variant-ligatures:normal;font-variant-numeric:normal;line-height:125%" xml:space="preserve"><tspan x="-121.31609" y="137.04259" font-family="sans-serif" font-size="9.8778px" font-weight="bold" stroke-width=".26458" text-align="center" text-anchor="middle" style="font-feature-settings:normal;font-variant-caps:normal;font-variant-ligatures:normal;font-variant-numeric:normal"><tspan dx="0" dy="0" fill="#000000" font-family="sans-serif" font-size="9.8778px" font-weight="bold" stroke-width=".26458" text-align="center" text-anchor="middle" style="font-feature-settings:normal;font-variant-caps:normal;font-variant-ligatures:normal;font-variant-numeric:normal">Proxy</tspan></tspan></text>
   <path d="m-172.01 123.11c0-1.1281 0.91625-2.0444 2.0444-2.0444h18.542c1.1281 0 2.039 0.91625 2.039 2.0444v8.1615c0 1.1281-0.91096 2.039-2.039 2.039h-18.542c-1.1281 0-2.0444-0.91095-2.0444-2.039z" fill="#00b050" fill-rule="evenodd"/>
   <text x="-160.93309" y="131.40045" fill="#000000" font-family="sans-serif" font-size="11.592px" letter-spacing="0px" stroke-width=".26458" text-align="center" text-anchor="middle" word-spacing="0px" style="font-feature-settings:normal;font-variant-caps:normal;font-variant-ligatures:normal;font-variant-numeric:normal;line-height:125%" xml:space="preserve"><tspan x="-160.93309" y="131.40045" font-family="sans-serif" font-size="11.592px" stroke-width=".26458" text-align="center" text-anchor="middle" style="font-feature-settings:normal;font-variant-caps:normal;font-variant-ligatures:normal;font-variant-numeric:normal"><tspan dx="0" dy="0" fill="#ffffff" font-family="sans-serif" font-size="11.592px" stroke-width=".26458" text-align="center" text-anchor="middle" style="font-feature-settings:normal;font-variant-caps:normal;font-variant-ligatures:normal;font-variant-numeric:normal">E</tspan></tspan></text>
   <path d="m-172.05 137.81c0-1.1281 0.91625-2.0444 2.0444-2.0444h18.5c1.1281 0 2.0391 0.91625 2.0391 2.0444v8.1615c0 1.1281-0.91096 2.039-2.0391 2.039h-18.5c-1.1281 0-2.0444-0.91095-2.0444-2.039z" fill="#00b050" fill-rule="evenodd"/>
   <text x="-160.84949" y="146.10283" fill="#000000" font-family="sans-serif" font-size="11.592px" letter-spacing="0px" stroke-width=".26458" text-align="center" text-anchor="middle" word-spacing="0px" style="font-feature-settings:normal;font-variant-caps:normal;font-variant-ligatures:normal;font-variant-numeric:normal;line-height:125%" xml:space="preserve"><tspan x="-160.84949" y="146.10283" font-family="sans-serif" font-size="11.592px" stroke-width=".26458" text-align="center" text-anchor="middle" style="font-feature-settings:normal;font-variant-caps:normal;font-variant-ligatures:normal;font-variant-numeric:normal"><tspan dx="0" dy="0" fill="#ffffff" font-family="sans-serif" font-size="11.592px" stroke-width=".26458" text-align="center" text-anchor="middle" style="font-feature-settings:normal;font-variant-caps:normal;font-variant-ligatures:normal;font-variant-numeric:normal">C</tspan></tspan></text>
   <path d="m-175.45 124.94-34.235-33.409 1.1281-1.1546 34.23 33.414zm1.6736-2.8653 1.7689 5.1003-5.1426-1.6418zm-36.454-28.827-1.7742-5.1056 5.148 1.6471z" stroke="#000" stroke-linejoin="round" stroke-width=".0052962px"/>
   <path d="m-182.33 184.07h22.583v10.206l-2.039 2.039h-20.544z" fill="#4a7b7c" fill-rule="evenodd"/>
   <path d="m-161.67 196.31 0.40781-1.6312 1.6312-0.40781z" fill="#3b6364" fill-rule="evenodd"/>
   <text x="-170.69324" y="194.40454" fill="#000000" font-family="sans-serif" font-size="11.592px" letter-spacing="0px" stroke-width=".26458" text-align="center" text-anchor="middle" word-spacing="0px" style="font-feature-settings:normal;font-variant-caps:normal;font-variant-ligatures:normal;font-variant-numeric:normal;line-height:125%" xml:space="preserve"><tspan x="-170.69324" y="194.40454" font-family="sans-serif" font-size="11.592px" stroke-width=".26458" text-align="center" text-anchor="middle" style="font-feature-settings:normal;font-variant-caps:normal;font-variant-ligatures:normal;font-variant-numeric:normal"><tspan dx="0" dy="0" fill="#ffffff" font-family="sans-serif" font-size="11.592px" stroke-width=".26458" text-align="center" text-anchor="middle" style="font-feature-settings:normal;font-variant-caps:normal;font-variant-ligatures:normal;font-variant-numeric:normal">TD</tspan></tspan></text>
   <path d="m-227.89 189.36h4.8302v1.6101h-4.8302zm6.4402 0h4.8302v1.6101h-4.8302zm6.4402 0h4.8302v1.6101h-4.8302zm6.4402 0h4.8302v1.6101h-4.8302zm6.4402 0h4.8302v1.6101h-4.8302zm6.4402 0h4.8302v1.6101h-4.8302zm6.4402 0h3.0242v1.6101h-3.0242zm2.2191-1.61 4.8302 2.4151-4.8302 2.4151z" stroke="#000" stroke-linejoin="round" stroke-width=".0052962px"/>
   <path d="m-159.04 190.75 3.2837-3.5379-1.1758-1.1016-3.2837 3.5485zm4.3747-4.7242 3.2837-3.5485-1.1758-1.091-3.2837 3.5485zm4.3747-4.7242 3.2837-3.5485-1.1758-1.091-3.2837 3.5485zm4.3853-4.7242 3.2731-3.5485-1.1758-1.091-3.2837 3.5485zm4.3747-4.7242 3.2837-3.5485-1.1864-1.091-3.2837 3.5379zm4.3747-4.7242 3.2837-3.5485-1.1864-1.091-3.2837 3.5379zm4.3747-4.7242 3.2837-3.5485-1.1864-1.091-3.2837 3.5379zm4.3747-4.7348 3.2837-3.5379-1.1864-1.091-3.2731 3.5379zm4.2158-2.182 1.5147-5.1903-5.0526 1.9066z" stroke="#000" stroke-linejoin="round" stroke-width=".010592px"/>
  </g>
 </g>
</svg>
