<svg xmlns="http://www.w3.org/2000/svg" width="333" height="397" viewBox="-0.5 -0.5 333 397" xmlns:v="https://vecta.io/nano"><style><![CDATA[.B{fill:#000}.C{font-family:Helvetica}.D{font-size:12px}.E{fill:green}.F{stroke:#000}.G{pointer-events:all}.H{stroke-miterlimit:10}.I{text-anchor:middle}]]></style><defs><marker id="A" refX="0.0" refY="0.0" orient="auto" overflow="visible"><path transform="matrix(-.8 0 0 -.8 -10 0)" d="M0 0l5-5-17.5 5L5 5 0 0z" fill-rule="evenodd" stroke-width="1pt" stroke-opacity="1" fill-opacity="1" class="B F"/></marker></defs><path d="M0 265.52h260V220H0v45.52" fill="#fff" class="F G H"/><text x="129.5" y="245.5" class="B C D I">Thing Description</text><g class="F H G"><path d="M.042 136.753h259.915V50.412H.042v86.341" fill="#f2f2f2" stroke-width="1.174"/><path d="M0 50h260V10H0v40" fill="#fff"/></g><text x="129.5" y="32.5" class="B C D I">Thing Model</text><path d="M4 335h252v-67H4v67m0-230h252V55H4v50" fill-opacity="0" fill="#fff" class="G"/><text x="9" y="94" transform="translate(-7.121 -2.249)" class="B C D">- <tspan class="E">Interaction affordances</tspan></text><text x="237" y="172.72" class="B C D I"><tspan x="233.103" y="162.999">Thing Description follows</tspan><tspan x="233.103" y="177.999">the template of the Thing Model</tspan><tspan x="233.103" y="192.999">and substitutes or completes them</tspan><tspan x="233.103" y="207.999">with instance-specific details.</tspan></text><text x="9" y="94" transform="translate(-7.121 -31.338)" class="B C D">- <tspan class="E">Common</tspan> metadata</text><text x="1.879" y="76.251" class="B C D">- No security or security template</text><text x="9" y="94" transform="translate(35.137 10.947)" class="B C D">- <tspan class="E">Common</tspan> metadata</text><text x="9" y="94" transform="translate(35.137 24.191)" class="B C D">- <tspan class="E">Data model</tspan></text><text x="44.137" y="130.351" class="B C D">- No protocol or protocol template</text><path d="M.142 369.2h259.8V265.018H.142V369.2" fill="#f2f2f2" stroke-width="1.289" class="F G H"/><text x="9" y="94" transform="translate(-7.079 222.298)" class="B C D">- <tspan class="E">Interaction affordances</tspan></text><text x="1.921" y="290.084" class="B C D">- Instance specific security setup</text><text x="9" y="94" transform="translate(35.179 235.495)" class="B C D">- <tspan class="E">Common</tspan> + instance specific metadata</text><text x="9" y="94" transform="translate(35.179 248.739)" class="B C D">- <tspan class="E">Data model</tspan></text><text x="44.179" y="354.899" class="B C D">- Instance specific protocol setup</text><text x="9" y="94" transform="translate(-7.079 183.65)" class="B C D">- <tspan class="E">Common</tspan> + instance specific metadata</text><text x="1.921" y="303.712" class="B C D">- Links</text><path d="M126.168 204.788l.491-45.608" fill="none" stroke-width=".818" marker-end="url(#A)" class="F"/></svg>